<svg xmlns="http://www.w3.org/2000/svg" viewBox="0 0 16 16"><defs><style>.cls-1{fill:none;}.cls-2{fill:#587330;}</style></defs><g id="Layer_2" data-name="Layer 2"><g id="Layer_5" data-name="Layer 5"><rect class="cls-1" width="16" height="16"/><path id="color_1" class="cls-2" d="M8.66,6.29h.09a3.29,3.29,0,0,0,2.32-.84,4.71,4.71,0,0,0,1.28-3.1V2.11h-.24A4.77,4.77,0,0,0,9,3.43a3.18,3.18,0,0,0-.79,2.41l0,1.39A1.41,1.41,0,0,0,9.43,9a5.47,5.47,0,0,1,1.76.31c0,.36-1.43.5-3.39.5s-3.41-.27-3.36-.5S4.92,9.1,6.12,9c.42-.06,1.7-.19,1.7-1.51v-3A3.5,3.5,0,0,0,7,2,4.7,4.7,0,0,0,3.89.68H3.65V.91A4.71,4.71,0,0,0,4.94,4a3.35,3.35,0,0,0,2.35.84H7.4V7.44c0,.81-.64,1-1.32,1.08-1.67.21-2.25.42-2.25.83a.19.19,0,0,0,0,.08v0L5,14.59s0,.05.06.08.64.65,2.71.65h0c2.06,0,2.65-.58,2.71-.65s.08-.06.09-.1l1.24-5.15h0s0-.05,0-.07c0-.32-.41-.46-.74-.56a12.18,12.18,0,0,0-1.59-.27c-.78-.09-.85-.66-.83-1.28Zm-2-4a2.74,2.74,0,0,1,.67,1.85l-3-2.94A3.93,3.93,0,0,1,6.7,2.27ZM4.18,1.48l3,2.91a2.79,2.79,0,0,1-1.9-.72A3.86,3.86,0,0,1,4.18,1.48ZM5.11,10a17.08,17.08,0,0,0,2.68.19A17.22,17.22,0,0,0,10.48,10a5.11,5.11,0,0,0,.61-.14l-.14.59a12,12,0,0,1-6.34,0l-.14-.6A5.76,5.76,0,0,0,5.11,10Zm4.94,4.35a4.19,4.19,0,0,1-2.28.49,4.23,4.23,0,0,1-2.28-.49L4.7,10.89a10.53,10.53,0,0,0,1.67.31,13,13,0,0,0,1.35.07,12.6,12.6,0,0,0,3.14-.4Zm.7-9.27a2.83,2.83,0,0,1-1.9.72l3-2.92A3.89,3.89,0,0,1,10.75,5.11ZM9.3,3.71a3.9,3.9,0,0,1,2.32-1.09l-3,2.93A2.79,2.79,0,0,1,9.3,3.71Z"/><path id="color_2" class="cls-2" d="M8.85,5.83l3-2.92a3.89,3.89,0,0,1-1.07,2.2A2.83,2.83,0,0,1,8.85,5.83Zm-.23-.28,3-2.93A3.9,3.9,0,0,0,9.3,3.71,2.79,2.79,0,0,0,8.62,5.55ZM6.7,2.27A3.93,3.93,0,0,0,4.38,1.18l3,2.94A2.74,2.74,0,0,0,6.7,2.27Zm.45,2.12-3-2.91A3.86,3.86,0,0,0,5.25,3.67,2.79,2.79,0,0,0,7.15,4.39Z"/></g></g></svg>